<?xml version="1.0" encoding="UTF-8"?>
<svg width="256" height="256" viewBox="0 0 256 256" xmlns="http://www.w3.org/2000/svg" role="img" aria-label="GoutDeau droplet icon">
  <defs></defs>
  <!-- rounded background for UI and mobile -->
  <rect x="0" y="0" width="256" height="256" rx="56" fill="#0f172a"/>

  <!-- water drop (solid fill to avoid conversion issues) -->
  <path fill="#3B82F6" d="M128 36c-22 36-54 68-54 102c0 30 24 54 54 54s54-24 54-54c0-34-32-66-54-102z"/>
  <!-- glossy highlight -->
  <path fill="#93C5FD" opacity="0.55" d="M116 76c-10 16-24 30-24 46c0 18 14 32 32 32 4 0 8-1 12-2-18-6-30-22-30-42 0-12 4-22 10-34z"/>
</svg>


