<?xml version="1.0" encoding="UTF-8"?>
<svg xmlns="http://www.w3.org/2000/svg" width="1200" height="630" viewBox="0 0 1200 630" role="img" aria-label="GoutDeau social card">
  <defs>
    <linearGradient id="g" x1="50%" y1="0%" x2="50%" y2="100%">
      <stop offset="0%" stop-color="#60A5FA"/>
      <stop offset="100%" stop-color="#2563EB"/>
    </linearGradient>
    <filter id="shadow" x="-20%" y="-20%" width="140%" height="140%">
      <feDropShadow dx="0" dy="24" stdDeviation="24" flood-color="#0ea5e9" flood-opacity="0.2"/>
    </filter>
  </defs>

  <!-- background -->
  <rect width="1200" height="630" fill="#0f172a"/>

  <!-- subtle radial highlight -->
  <radialGradient id="r" cx="50%" cy="45%" r="60%">
    <stop offset="0%" stop-color="#1e293b" stop-opacity="0.9"/>
    <stop offset="100%" stop-color="#0f172a" stop-opacity="1"/>
  </radialGradient>
  <rect width="1200" height="630" fill="url(#r)"/>

  <!-- droplet -->
  <g filter="url(#shadow)">
    <path fill="url(#g)" d="M600 120c-70 110-170 208-170 312 0 94 76 170 170 170s170-76 170-170c0-104-100-202-170-312z"/>
    <path fill="#93C5FD" opacity="0.55" d="M565 205c-35 56-84 104-84 158 0 61 49 110 110 110 13 0 26-2 39-7-60-20-101-76-101-145 0-39 13-76 36-116z"/>
  </g>

  <!-- title -->
  <g transform="translate(0, 420)">
    <text x="600" y="0" text-anchor="middle" font-family="Inter, ui-sans-serif, system-ui, -apple-system, Segoe UI, Roboto" font-size="64" font-weight="800" fill="#E2E8F0">GoutDeau</text>
    <text x="600" y="44" text-anchor="middle" font-family="Inter, ui-sans-serif, system-ui, -apple-system, Segoe UI, Roboto" font-size="28" font-weight="500" fill="#94A3B8">Hydration tracking made fun</text>
  </g>
</svg>


