<?xml version="1.0" encoding="UTF-8"?>
<svg xmlns="http://www.w3.org/2000/svg" width="1200" height="630" viewBox="0 0 1200 630" role="img" aria-label="GoutDeau social card">
  <defs>
    <linearGradient id="bg" x1="0%" y1="0%" x2="100%" y2="100%">
      <stop offset="0%" stop-color="#EFF6FF"/>
      <stop offset="100%" stop-color="#DBEAFE"/>
    </linearGradient>
    <linearGradient id="g" x1="50%" y1="0%" x2="50%" y2="100%">
      <stop offset="0%" stop-color="#60A5FA"/>
      <stop offset="100%" stop-color="#2563EB"/>
    </linearGradient>
    <filter id="shadow" x="-20%" y="-20%" width="140%" height="140%">
      <feDropShadow dx="0" dy="24" stdDeviation="24" flood-color="#2563EB" flood-opacity="0.25"/>
    </filter>
  </defs>

  <!-- bright gradient background -->
  <rect width="1200" height="630" fill="url(#bg)"/>

  <!-- droplet with shadow -->
  <g filter="url(#shadow)">
    <path fill="url(#g)" d="M600 120c-70 110-170 208-170 312 0 94 76 170 170 170s170-76 170-170c0-104-100-202-170-312z"/>
    <path fill="#BFDBFE" opacity="0.6" d="M565 205c-35 56-84 104-84 158 0 61 49 110 110 110 13 0 26-2 39-7-60-20-101-76-101-145 0-39 13-76 36-116z"/>
  </g>

  <!-- title -->
  <g transform="translate(0, 420)">
    <text x="600" y="0" text-anchor="middle" font-family="Inter, ui-sans-serif, system-ui, -apple-system, BlinkMacSystemFont, Segoe UI, Roboto, Arial, sans-serif" font-size="64" font-weight="800" fill="#0F172A">GoutDeau</text>
    <text x="600" y="44" text-anchor="middle" font-family="Inter, ui-sans-serif, system-ui, -apple-system, BlinkMacSystemFont, Segoe UI, Roboto, Arial, sans-serif" font-size="28" font-weight="500" fill="#334155">Hydration tracking made fun</text>
  </g>
</svg>
